<svg width="30" height="30" viewBox="0 0 30 30" fill="none" xmlns="http://www.w3.org/2000/svg">
<path d="M13.3333 18.5714V21.4286C10.6812 21.4286 8.13763 22.3316 6.26227 23.9391C4.3869 25.5465 3.33333 27.7267 3.33333 30H0C0 26.969 1.40476 24.0621 3.90524 21.9188C6.40573 19.7755 9.79711 18.5714 13.3333 18.5714ZM13.3333 17.1429C7.80833 17.1429 3.33333 13.3071 3.33333 8.57143C3.33333 3.83571 7.80833 0 13.3333 0C18.8583 0 23.3333 3.83571 23.3333 8.57143C23.3333 13.3071 18.8583 17.1429 13.3333 17.1429ZM13.3333 14.2857C17.0167 14.2857 20 11.7286 20 8.57143C20 5.41429 17.0167 2.85714 13.3333 2.85714C9.65 2.85714 6.66667 5.41429 6.66667 8.57143C6.66667 11.7286 9.65 14.2857 13.3333 14.2857ZM28.3333 22.8571H30V30H16.6667V22.8571H18.3333V21.4286C18.3333 20.2919 18.8601 19.2018 19.7978 18.3981C20.7355 17.5944 22.0073 17.1429 23.3333 17.1429C24.6594 17.1429 25.9312 17.5944 26.8689 18.3981C27.8065 19.2018 28.3333 20.2919 28.3333 21.4286V22.8571ZM25 22.8571V21.4286C25 21.0497 24.8244 20.6863 24.5118 20.4184C24.1993 20.1505 23.7754 20 23.3333 20C22.8913 20 22.4674 20.1505 22.1548 20.4184C21.8423 20.6863 21.6667 21.0497 21.6667 21.4286V22.8571H25Z" fill="white"/>
</svg>
